<svg xmlns="http://www.w3.org/2000/svg" viewBox="0 0 44 44" fill="none">
  <defs>
    <linearGradient id="pai-grad" x1="0" y1="0" x2="44" y2="44" gradientUnits="userSpaceOnUse">
      <stop offset="0%" stop-color="#00C9A7"/>
      <stop offset="100%" stop-color="#1B3566"/>
    </linearGradient>
  </defs>
  <path d="M22 3L5 10v11c0 11.5 7.5 19.5 17 21.8C29.5 40.5 37 32.5 37 21V10L22 3z" fill="url(#pai-grad)"/>
  <circle cx="22" cy="17" r="2.2" fill="white" opacity="0.95"/>
  <circle cx="14.5" cy="24" r="1.9" fill="white" opacity="0.95"/>
  <circle cx="29.5" cy="24" r="1.9" fill="white" opacity="0.95"/>
  <circle cx="17.5" cy="31" r="1.9" fill="white" opacity="0.95"/>
  <circle cx="26.5" cy="31" r="1.9" fill="white" opacity="0.95"/>
  <line x1="22" y1="17" x2="14.5" y2="24" stroke="white" stroke-width="1.3" opacity="0.75"/>
  <line x1="22" y1="17" x2="29.5" y2="24" stroke="white" stroke-width="1.3" opacity="0.75"/>
  <line x1="14.5" y1="24" x2="17.5" y2="31" stroke="white" stroke-width="1.3" opacity="0.75"/>
  <line x1="29.5" y1="24" x2="26.5" y2="31" stroke="white" stroke-width="1.3" opacity="0.75"/>
  <line x1="14.5" y1="24" x2="29.5" y2="24" stroke="white" stroke-width="1.3" opacity="0.75"/>
  <line x1="17.5" y1="31" x2="26.5" y2="31" stroke="white" stroke-width="1.3" opacity="0.75"/>
</svg>
